# xmcd CD database file
#
# Track frame offsets:
#	150
#	13641
#	31322
#	53021
#	77370
#	95155
#	109042
#	144146
#	164303
#	194447
#	209504
#	241565
#	280297
#	317016
#
# Disc length: 4664 seconds
#
# Revision: 0
# Processed by: cddbd v1.5.2PL0 Copyright (c) Steve Scherf et al.
# Submitted via: CDex 1.51
#
DISCID=b112360e
DTITLE=Duke Robillard - Duke`s Box, The Blues And More CD 1
DYEAR=2009
DGENRE=Blues
TTITLE0=I Still Love You Baby
TTITLE1=Buy Me A Dog
TTITLE2=Everything Is Broken
TTITLE3=Never Let You Go
TTITLE4=How Long Has It Been
TTITLE5=Midnite Cannonball
TTITLE6=West Side Shuffle
TTITLE7=Gambler Blues
TTITLE8=Pony Blues
TTITLE9=World Of Blues
TTITLE10=Goodtime Charlie
TTITLE11=Blues Nightmare
TTITLE12=Two Bones And A Pick
TTITLE13=The Return Of Duke`s Mood
EXTD=YEAR: 2009
EXTT0=
EXTT1=
EXTT2=
EXTT3=
EXTT4=
EXTT5=
EXTT6=
EXTT7=
EXTT8=
EXTT9=
EXTT10=
EXTT11=
EXTT12=
EXTT13=
PLAYORDER=
